<svg width="28" height="27" viewBox="0 0 28 27" fill="none" xmlns="http://www.w3.org/2000/svg">
<g filter="url(#filter0_d_212_7)">
<path fill-rule="evenodd" clip-rule="evenodd" d="M8.88157 13.1717C7.06987 11.2604 5.62123 9.98555 5.15374 7.96945C4.80608 6.47017 4.90934 3.7293 6.95027 2.45277C11.4506 -0.362356 13.9723 3.95738 13.9723 3.95738H14.0277C14.0277 3.95738 16.5494 -0.362356 21.0497 2.45277C23.0907 3.7293 23.1939 6.47017 22.8463 7.96945C22.3788 9.98555 20.9301 11.2604 19.1184 13.1717C14 18 14.0028 18.0049 14 18C14 18 14 18 8.88157 13.1717Z" stroke="#41BB45" shape-rendering="crispEdges"/>
<path fill-rule="evenodd" clip-rule="evenodd" d="M8.88157 13.1717C7.06987 11.2604 5.62123 9.98555 5.15374 7.96945C4.80608 6.47017 4.90934 3.7293 6.95027 2.45277C11.4506 -0.362356 13.9723 3.95738 13.9723 3.95738H14.0277C14.0277 3.95738 16.5494 -0.362356 21.0497 2.45277C23.0907 3.7293 23.1939 6.47017 22.8463 7.96945C22.3788 9.98555 20.9301 11.2604 19.1184 13.1717C14 18 14.0028 18.0049 14 18C14 18 14 18 8.88157 13.1717Z" stroke="url(#paint0_linear_212_7)" shape-rendering="crispEdges"/>
<path fill-rule="evenodd" clip-rule="evenodd" d="M8.88157 13.1717C7.06987 11.2604 5.62123 9.98555 5.15374 7.96945C4.80608 6.47017 4.90934 3.7293 6.95027 2.45277C11.4506 -0.362356 13.9723 3.95738 13.9723 3.95738H14.0277C14.0277 3.95738 16.5494 -0.362356 21.0497 2.45277C23.0907 3.7293 23.1939 6.47017 22.8463 7.96945C22.3788 9.98555 20.9301 11.2604 19.1184 13.1717C14 18 14.0028 18.0049 14 18C14 18 14 18 8.88157 13.1717Z" stroke="url(#paint1_linear_212_7)" shape-rendering="crispEdges"/>
</g>
<defs>
<filter id="filter0_d_212_7" x="0.0970612" y="0.597076" width="27.8059" height="26.3061" filterUnits="userSpaceOnUse" color-interpolation-filters="sRGB">
<feFlood flood-opacity="0" result="BackgroundImageFix"/>
<feColorMatrix in="SourceAlpha" type="matrix" values="0 0 0 0 0 0 0 0 0 0 0 0 0 0 0 0 0 0 127 0" result="hardAlpha"/>
<feOffset dy="4"/>
<feGaussianBlur stdDeviation="2"/>
<feComposite in2="hardAlpha" operator="out"/>
<feColorMatrix type="matrix" values="0 0 0 0 0 0 0 0 0 0 0 0 0 0 0 0 0 0 0.25 0"/>
<feBlend mode="normal" in2="BackgroundImageFix" result="effect1_dropShadow_212_7"/>
<feBlend mode="normal" in="SourceGraphic" in2="effect1_dropShadow_212_7" result="shape"/>
</filter>
<linearGradient id="paint0_linear_212_7" x1="12.2844" y1="-6.85326" x2="27.8758" y2="2.9132" gradientUnits="userSpaceOnUse">
<stop stop-color="#59D44F"/>
<stop offset="1" stop-color="#36B433"/>
</linearGradient>
<linearGradient id="paint1_linear_212_7" x1="12.2844" y1="-6.85326" x2="27.8758" y2="2.9132" gradientUnits="userSpaceOnUse">
<stop stop-color="#D44F4F"/>
<stop offset="1" stop-color="#B43333"/>
</linearGradient>
</defs>
</svg>
